<?xml version='1.0' encoding='utf-8'?>
<svg xmlns="http://www.w3.org/2000/svg" version="1.1" id="Layer_1" x="0px" y="0px" width="100%" viewBox="0 0 114 124" enable-background="new 0 0 114 124" xml:space="preserve">
<rect x="0.0" y="0.0" width="114.0" height="124.0" fill="#12B76A" /><path fill="#FFFFFF" opacity="1.000000" stroke="none" d=" M59.000000,125.000000   C39.333332,125.000000 20.166666,125.000000 1.000000,125.000000   C1.000000,83.666664 1.000000,42.333332 1.000000,1.000000   C39.000000,1.000000 77.000000,1.000000 115.000000,1.000000   C115.000000,42.333332 115.000000,83.666664 115.000000,125.000000   C96.500000,125.000000 78.000000,125.000000 59.000000,125.000000  M58.499992,105.021370   C65.164719,105.021271 71.829475,105.033722 78.494164,105.017708   C85.808571,105.000122 87.703583,103.149529 87.709587,95.910393   C87.725464,76.749237 87.711601,57.588058 87.705421,38.426888   C87.703072,31.141245 86.422394,29.535795 79.359917,29.970123   C74.252312,30.284229 72.204643,28.607185 73.040733,23.544298   C73.147896,22.895355 72.913452,22.174843 73.081512,21.553553   C74.219337,17.347229 71.950150,16.823427 68.524712,16.930445   C62.865196,17.107256 57.196117,16.977718 51.531067,16.977411   C40.611137,16.976818 40.613937,16.977064 39.830273,27.529860   C39.808346,27.825117 39.571941,28.104446 39.202503,28.881165   C38.139793,28.881165 36.854275,28.870140 35.568996,28.882961   C27.472200,28.963724 26.110874,30.354372 26.110060,38.613594   C26.108135,58.108021 26.090530,77.602516 26.140163,97.096832   C26.154444,102.705673 28.419756,104.956894 34.006847,105.004326   C41.837383,105.070808 49.668903,105.021286 58.499992,105.021370  z" />
<path fill="#FFFFFF" opacity="1.000000" stroke="none" d=" M57.999996,105.021378   C49.668903,105.021286 41.837383,105.070808 34.006847,105.004326   C28.419756,104.956894 26.154444,102.705673 26.140163,97.096832   C26.090530,77.602516 26.108135,58.108021 26.110060,38.613594   C26.110874,30.354372 27.472200,28.963724 35.568996,28.882961   C36.854275,28.870140 38.139793,28.881165 39.202503,28.881165   C39.571941,28.104446 39.808346,27.825117 39.830273,27.529860   C40.613937,16.977064 40.611137,16.976818 51.531067,16.977411   C57.196117,16.977718 62.865196,17.107256 68.524712,16.930445   C71.950150,16.823427 74.219337,17.347229 73.081512,21.553553   C72.913452,22.174843 73.147896,22.895355 73.040733,23.544298   C72.204643,28.607185 74.252312,30.284229 79.359917,29.970123   C86.422394,29.535795 87.703072,31.141245 87.705421,38.426888   C87.711601,57.588058 87.725464,76.749237 87.709587,95.910393   C87.703583,103.149529 85.808571,105.000122 78.494164,105.017708   C71.829475,105.033722 65.164719,105.021271 57.999996,105.021378  M81.082466,99.653343   C81.596008,97.277740 82.109558,94.902130 82.729973,92.032196   C75.601059,92.032196 69.507889,92.032196 62.809361,92.032196   C67.514664,82.654541 76.127831,89.299004 82.094376,86.183701   C82.094376,82.062057 82.094376,77.790688 82.094376,73.070007   C76.130844,73.070007 70.362610,73.070007 64.047791,73.070007   C64.546394,71.041107 64.908852,69.566193 65.332497,67.842323   C71.144806,67.842323 76.596535,67.842323 81.980896,67.842323   C81.980896,64.416771 81.980896,61.351437 81.980896,58.389702   C64.946350,58.389702 48.239929,58.389702 31.532562,58.389702   C31.532562,61.740845 31.532562,64.673637 31.532562,68.051636   C37.164719,68.051636 42.559586,68.051636 48.648533,68.051636   C44.526100,76.527122 36.889797,71.032082 31.665287,73.616020   C31.665287,77.959854 31.665287,82.344635 31.665287,87.040848   C37.495548,87.040848 42.962402,87.040848 48.815895,87.040848   C48.392784,88.940910 48.056740,90.449997 47.642658,92.309494   C42.073460,92.309494 36.817574,92.309494 31.615549,92.309494   C30.990303,99.815758 30.990301,99.813110 37.654285,99.809486   C51.818329,99.801788 65.982368,99.797134 81.082466,99.653343  M31.292715,42.568340   C31.292715,45.975403 31.292715,49.382462 31.292715,52.759125   C48.691071,52.759125 65.281227,52.759125 82.034645,52.759125   C82.034645,46.464180 82.034645,40.414825 82.034645,34.294426   C65.066101,34.294426 48.396172,34.294426 31.291689,34.294426   C31.291689,37.005577 31.291689,39.307648 31.292715,42.568340  M63.241737,28.937180   C64.849495,28.937180 66.457245,28.937180 68.185120,28.937180   C68.185120,26.369839 68.185120,24.331463 68.185120,22.340645   C60.386562,22.340645 52.975033,22.340645 45.513962,22.340645   C45.513962,24.639591 45.513962,26.660215 45.513962,28.937750   C51.368538,28.937750 56.832047,28.937750 63.241737,28.937180  z" />
<path fill="#FFFFFF" opacity="1.000000" stroke="none" d=" M80.614441,99.722290   C65.982368,99.797134 51.818329,99.801788 37.654285,99.809486   C30.990301,99.813110 30.990303,99.815758 31.615549,92.309494   C36.817574,92.309494 42.073460,92.309494 47.642658,92.309494   C48.056740,90.449997 48.392784,88.940910 48.815895,87.040848   C42.962402,87.040848 37.495548,87.040848 31.665287,87.040848   C31.665287,82.344635 31.665287,77.959854 31.665287,73.616020   C36.889797,71.032082 44.526100,76.527122 48.648533,68.051636   C42.559586,68.051636 37.164719,68.051636 31.532562,68.051636   C31.532562,64.673637 31.532562,61.740845 31.532562,58.389702   C48.239929,58.389702 64.946350,58.389702 81.980896,58.389702   C81.980896,61.351437 81.980896,64.416771 81.980896,67.842323   C76.596535,67.842323 71.144806,67.842323 65.332497,67.842323   C64.908852,69.566193 64.546394,71.041107 64.047791,73.070007   C70.362610,73.070007 76.130844,73.070007 82.094376,73.070007   C82.094376,77.790688 82.094376,82.062057 82.094376,86.183701   C76.127831,89.299004 67.514664,82.654541 62.809361,92.032196   C69.507889,92.032196 75.601059,92.032196 82.729973,92.032196   C82.109558,94.902130 81.596008,97.277740 80.614441,99.722290  M51.069862,93.301491   C52.538143,97.607346 53.738956,97.974892 56.407734,94.678581   C59.339020,91.058014 62.175522,87.347580 64.827919,83.520103   C66.080673,81.712364 66.807472,79.540154 67.772575,77.533081   C65.674538,76.910728 63.573048,76.299538 61.482399,75.653267   C61.189705,75.562790 60.950176,75.300316 60.399105,74.918823   C60.946415,71.650719 61.662796,68.249176 62.007809,64.810364   C62.119869,63.693398 61.260647,62.478985 60.845684,61.309147   C59.592262,61.818920 57.936798,61.985683 57.157066,62.899597   C54.243778,66.314255 51.512936,69.900261 48.930271,73.574265   C47.753403,75.248436 47.081814,77.277794 46.181042,79.146057   C48.246799,79.800003 50.316605,80.441734 52.373600,81.122177   C52.654869,81.215218 52.872322,81.501183 53.321800,81.859009   C52.635265,85.333679 51.926567,88.920540 51.069862,93.301491  z" />
<path fill="#FFFFFF" opacity="1.000000" stroke="none" d=" M31.292202,42.089027   C31.291689,39.307648 31.291689,37.005577 31.291689,34.294426   C48.396172,34.294426 65.066101,34.294426 82.034645,34.294426   C82.034645,40.414825 82.034645,46.464180 82.034645,52.759125   C65.281227,52.759125 48.691071,52.759125 31.292715,52.759125   C31.292715,49.382462 31.292715,45.975403 31.292202,42.089027  M45.090340,48.312073   C45.667534,47.511234 46.113205,46.548164 46.853252,45.948200   C47.920902,45.082638 47.772259,43.710579 44.915836,38.129738   C44.426472,37.173618 42.767700,36.796227 41.611679,36.227654   C41.476013,36.160927 41.054832,36.540550 40.844372,36.781654   C39.390282,38.447487 37.882504,40.075722 36.560410,41.842102   C36.139652,42.404259 35.836479,43.638058 36.153458,44.070423   C37.752239,46.251175 39.429081,48.429882 41.426544,50.221252   C41.880730,50.628578 43.715725,49.496235 45.090340,48.312073  M71.417862,36.036411   C69.278725,38.099323 65.615417,40.023186 65.411118,42.262608   C65.188103,44.707218 68.074669,47.510109 69.831177,49.997669   C70.181854,50.494301 71.970978,50.705196 72.375504,50.309818   C74.319969,48.409359 76.094772,46.314510 77.735596,44.141983   C78.058739,43.714130 77.779282,42.432873 77.343460,41.901138   C75.720909,39.921497 73.917389,38.090179 71.417862,36.036411  z" />
<path fill="#FFFFFF" opacity="1.000000" stroke="none" d=" M62.768646,28.937466   C56.832047,28.937750 51.368538,28.937750 45.513962,28.937750   C45.513962,26.660215 45.513962,24.639591 45.513962,22.340645   C52.975033,22.340645 60.386562,22.340645 68.185120,22.340645   C68.185120,24.331463 68.185120,26.369839 68.185120,28.937180   C66.457245,28.937180 64.849495,28.937180 62.768646,28.937466  z" />
<path fill="#FFFFFF" opacity="1.000000" stroke="none" d=" M51.143867,92.904442   C51.926567,88.920540 52.635265,85.333679 53.321800,81.859009   C52.872322,81.501183 52.654869,81.215218 52.373600,81.122177   C50.316605,80.441734 48.246799,79.800003 46.181042,79.146057   C47.081814,77.277794 47.753403,75.248436 48.930271,73.574265   C51.512936,69.900261 54.243778,66.314255 57.157066,62.899597   C57.936798,61.985683 59.592262,61.818920 60.845684,61.309147   C61.260647,62.478985 62.119869,63.693398 62.007809,64.810364   C61.662796,68.249176 60.946415,71.650719 60.399105,74.918823   C60.950176,75.300316 61.189705,75.562790 61.482399,75.653267   C63.573048,76.299538 65.674538,76.910728 67.772575,77.533081   C66.807472,79.540154 66.080673,81.712364 64.827919,83.520103   C62.175522,87.347580 59.339020,91.058014 56.407734,94.678581   C53.738956,97.974892 52.538143,97.607346 51.143867,92.904442  z" />
<path fill="#FFFFFF" opacity="1.000000" stroke="none" d=" M45.002754,48.692322   C43.715725,49.496235 41.880730,50.628578 41.426544,50.221252   C39.429081,48.429882 37.752239,46.251175 36.153458,44.070423   C35.836479,43.638058 36.139652,42.404259 36.560410,41.842102   C37.882504,40.075722 39.390282,38.447487 40.844372,36.781654   C41.054832,36.540550 41.476013,36.160927 41.611679,36.227654   C42.767700,36.796227 44.426472,37.173618 44.915836,38.129738   C47.772259,43.710579 47.920902,45.082638 46.853252,45.948200   C46.113205,46.548164 45.667534,47.511234 45.002754,48.692322  z" />
<path fill="#FFFFFF" opacity="1.000000" stroke="none" d=" M71.799835,36.119801   C73.917389,38.090179 75.720909,39.921497 77.343460,41.901138   C77.779282,42.432873 78.058739,43.714130 77.735596,44.141983   C76.094772,46.314510 74.319969,48.409359 72.375504,50.309818   C71.970978,50.705196 70.181854,50.494301 69.831177,49.997669   C68.074669,47.510109 65.188103,44.707218 65.411118,42.262608   C65.615417,40.023186 69.278725,38.099323 71.799835,36.119801  z" />
</svg>